<svg xmlns="http://www.w3.org/2000/svg" viewBox="0 0 1920 1080" width="1920" height="1080">

<defs>
  <style>
    .solid    { fill: none; stroke: #4A8EC9; stroke-width: 1.2; }
    .hair     { fill: none; stroke: #4A8EC9; stroke-width: 0.9; }
    .dashed   { fill: none; stroke: #4A8EC9; stroke-width: 0.9; stroke-dasharray: 8 6; }
    .dotted   { fill: none; stroke: #4A8EC9; stroke-width: 0.9; stroke-dasharray: 2 5; stroke-linecap: round; }
    .dotted-fine { fill: none; stroke: #4A8EC9; stroke-width: 0.7; stroke-dasharray: 1.5 4; stroke-linecap: round; }
    .tickline { fill: none; stroke: #4A8EC9; stroke-width: 1.0; }
    .label    { fill: #4A8EC9; font-family: 'Helvetica Neue', 'Inter', 'Arial', sans-serif;
                 font-size: 22px; font-style: italic; }
    .label-sm { fill: #4A8EC9; font-family: 'Helvetica Neue', 'Inter', 'Arial', sans-serif;
                 font-size: 18px; font-style: italic; }
    .mono     { fill: #4A8EC9; font-family: 'Helvetica Neue', 'Inter', 'Arial', sans-serif;
                 font-size: 20px; font-style: italic; letter-spacing: 0.5px; }
  </style>
</defs>

<!-- Master golden rectangle -->
<rect x="326.606" y="80.000" width="1326.788" height="820.000" class="solid"/>
<!-- Fibonacci square subdivision lines (dashed) -->
<line x1="1146.606" y1="80.000" x2="1146.606" y2="900.000" class="dashed"/>
<line x1="1146.606" y1="586.788" x2="1653.394" y2="586.788" class="dashed"/>
<line x1="1340.182" y1="586.788" x2="1340.182" y2="900.000" class="dashed"/>
<line x1="1146.606" y1="706.424" x2="1340.182" y2="706.424" class="dashed"/>
<line x1="1266.242" y1="586.788" x2="1266.242" y2="706.424" class="dashed"/>
<line x1="1266.242" y1="660.727" x2="1340.182" y2="660.727" class="dashed"/>
<!-- Main diagonals (dashed) -->
<line x1="326.606" y1="80.000" x2="1653.394" y2="900.000" class="dashed"/>
<line x1="326.606" y1="900.000" x2="1653.394" y2="80.000" class="dashed"/>
<!-- Diagonals of the primary (left) square -->
<line x1="326.606" y1="80.000" x2="1146.606" y2="900.000" class="dashed"/>
<line x1="326.606" y1="900.000" x2="1146.606" y2="80.000" class="dashed"/>
<!-- Fibonacci spiral (solid - the proof line) -->
<path d="M 326.606 900.000 A 820.000 820.000 0 0 1 1146.606 80.000 A 506.788 506.788 0 0 1 1653.394 586.788 A 313.212 313.212 0 0 1 1340.182 900.000 A 193.576 193.576 0 0 1 1146.606 706.424 A 119.636 119.636 0 0 1 1266.242 586.788 A 73.939 73.939 0 0 1 1340.182 660.727" class="solid"/>
<!-- Guide circles (dotted) centered on lion -->
<circle cx="736.606" cy="490.000" r="389.500" class="dotted-fine"/>
<circle cx="736.606" cy="490.000" r="240.724" class="dotted-fine"/>
<circle cx="736.606" cy="490.000" r="148.776" class="dotted-fine"/>
<!-- Horizontal reference lines (dotted) -->
<line x1="306.606" y1="393.212" x2="1653.394" y2="393.212" class="dotted"/>
<line x1="306.606" y1="586.788" x2="1653.394" y2="586.788" class="dotted"/>
<line x1="306.606" y1="490.000" x2="1653.394" y2="490.000" class="dotted"/>
<!-- Vertical reference lines (dotted) -->
<line x1="639.818" y1="60.000" x2="639.818" y2="920.000" class="dotted"/>
<line x1="833.394" y1="60.000" x2="833.394" y2="920.000" class="dotted"/>
<!-- Tick-mark crosses at key intersections -->
<line x1="318.606" y1="80.000" x2="334.606" y2="80.000" class="tickline"/><line x1="326.606" y1="72.000" x2="326.606" y2="88.000" class="tickline"/>
<line x1="1645.394" y1="80.000" x2="1661.394" y2="80.000" class="tickline"/><line x1="1653.394" y1="72.000" x2="1653.394" y2="88.000" class="tickline"/>
<line x1="318.606" y1="900.000" x2="334.606" y2="900.000" class="tickline"/><line x1="326.606" y1="892.000" x2="326.606" y2="908.000" class="tickline"/>
<line x1="1645.394" y1="900.000" x2="1661.394" y2="900.000" class="tickline"/><line x1="1653.394" y1="892.000" x2="1653.394" y2="908.000" class="tickline"/>
<line x1="1140.606" y1="80.000" x2="1152.606" y2="80.000" class="tickline"/><line x1="1146.606" y1="74.000" x2="1146.606" y2="86.000" class="tickline"/>
<line x1="1140.606" y1="900.000" x2="1152.606" y2="900.000" class="tickline"/><line x1="1146.606" y1="894.000" x2="1146.606" y2="906.000" class="tickline"/>
<line x1="1140.606" y1="586.788" x2="1152.606" y2="586.788" class="tickline"/><line x1="1146.606" y1="580.788" x2="1146.606" y2="592.788" class="tickline"/>
<line x1="1647.394" y1="586.788" x2="1659.394" y2="586.788" class="tickline"/><line x1="1653.394" y1="580.788" x2="1653.394" y2="592.788" class="tickline"/>
<line x1="1334.182" y1="586.788" x2="1346.182" y2="586.788" class="tickline"/><line x1="1340.182" y1="580.788" x2="1340.182" y2="592.788" class="tickline"/>
<line x1="1334.182" y1="900.000" x2="1346.182" y2="900.000" class="tickline"/><line x1="1340.182" y1="894.000" x2="1340.182" y2="906.000" class="tickline"/>
<line x1="1140.606" y1="706.424" x2="1152.606" y2="706.424" class="tickline"/><line x1="1146.606" y1="700.424" x2="1146.606" y2="712.424" class="tickline"/>
<line x1="1260.242" y1="586.788" x2="1272.242" y2="586.788" class="tickline"/><line x1="1266.242" y1="580.788" x2="1266.242" y2="592.788" class="tickline"/>
<line x1="634.818" y1="393.212" x2="644.818" y2="393.212" class="tickline"/><line x1="639.818" y1="388.212" x2="639.818" y2="398.212" class="tickline"/>
<line x1="828.394" y1="393.212" x2="838.394" y2="393.212" class="tickline"/><line x1="833.394" y1="388.212" x2="833.394" y2="398.212" class="tickline"/>
<line x1="634.818" y1="586.788" x2="644.818" y2="586.788" class="tickline"/><line x1="639.818" y1="581.788" x2="639.818" y2="591.788" class="tickline"/>
<line x1="828.394" y1="586.788" x2="838.394" y2="586.788" class="tickline"/><line x1="833.394" y1="581.788" x2="833.394" y2="591.788" class="tickline"/>
<line x1="1335.182" y1="660.727" x2="1345.182" y2="660.727" class="tickline"/><line x1="1340.182" y1="655.727" x2="1340.182" y2="665.727" class="tickline"/>
<!-- Left dimension brackets -->
<line x1="271.606" y1="80.000" x2="271.606" y2="900.000" class="solid"/>
<line x1="265.606" y1="80.000" x2="277.606" y2="80.000" class="solid"/>
<line x1="265.606" y1="900.000" x2="277.606" y2="900.000" class="solid"/>
<line x1="265.606" y1="586.788" x2="277.606" y2="586.788" class="solid"/>
<text x="249.606" y="340.394" text-anchor="end" class="label">1</text>
<text x="249.606" y="750.394" text-anchor="end" class="label">1/φ</text>
<line x1="221.606" y1="80.000" x2="221.606" y2="900.000" class="hair"/>
<line x1="215.606" y1="80.000" x2="227.606" y2="80.000" class="hair"/>
<line x1="215.606" y1="900.000" x2="227.606" y2="900.000" class="hair"/>
<text x="209.606" y="497.000" text-anchor="end" class="label">φ</text>
<!-- Bottom annotation -->
<text x="80.000" y="970.000" class="mono">φ = 1.6180339887...</text>
<line x1="80.000" y1="1000.000" x2="360.000" y2="1000.000" class="tickline"/>
<line x1="80.000" y1="1000.000" x2="80.000" y2="990.000" class="tickline"/>
<line x1="108.000" y1="1000.000" x2="108.000" y2="994.000" class="tickline"/>
<line x1="136.000" y1="1000.000" x2="136.000" y2="994.000" class="tickline"/>
<line x1="164.000" y1="1000.000" x2="164.000" y2="994.000" class="tickline"/>
<line x1="192.000" y1="1000.000" x2="192.000" y2="994.000" class="tickline"/>
<line x1="220.000" y1="1000.000" x2="220.000" y2="990.000" class="tickline"/>
<line x1="248.000" y1="1000.000" x2="248.000" y2="994.000" class="tickline"/>
<line x1="276.000" y1="1000.000" x2="276.000" y2="994.000" class="tickline"/>
<line x1="304.000" y1="1000.000" x2="304.000" y2="994.000" class="tickline"/>
<line x1="332.000" y1="1000.000" x2="332.000" y2="994.000" class="tickline"/>
<line x1="360.000" y1="1000.000" x2="360.000" y2="990.000" class="tickline"/>
<line x1="85.600" y1="1000.000" x2="85.600" y2="997.000" class="tickline"/>
<line x1="91.200" y1="1000.000" x2="91.200" y2="997.000" class="tickline"/>
<line x1="96.800" y1="1000.000" x2="96.800" y2="997.000" class="tickline"/>
<line x1="102.400" y1="1000.000" x2="102.400" y2="997.000" class="tickline"/>
<line x1="113.600" y1="1000.000" x2="113.600" y2="997.000" class="tickline"/>
<line x1="119.200" y1="1000.000" x2="119.200" y2="997.000" class="tickline"/>
<line x1="124.800" y1="1000.000" x2="124.800" y2="997.000" class="tickline"/>
<line x1="130.400" y1="1000.000" x2="130.400" y2="997.000" class="tickline"/>
<line x1="141.600" y1="1000.000" x2="141.600" y2="997.000" class="tickline"/>
<line x1="147.200" y1="1000.000" x2="147.200" y2="997.000" class="tickline"/>
<line x1="152.800" y1="1000.000" x2="152.800" y2="997.000" class="tickline"/>
<line x1="158.400" y1="1000.000" x2="158.400" y2="997.000" class="tickline"/>
<line x1="169.600" y1="1000.000" x2="169.600" y2="997.000" class="tickline"/>
<line x1="175.200" y1="1000.000" x2="175.200" y2="997.000" class="tickline"/>
<line x1="180.800" y1="1000.000" x2="180.800" y2="997.000" class="tickline"/>
<line x1="186.400" y1="1000.000" x2="186.400" y2="997.000" class="tickline"/>
<line x1="197.600" y1="1000.000" x2="197.600" y2="997.000" class="tickline"/>
<line x1="203.200" y1="1000.000" x2="203.200" y2="997.000" class="tickline"/>
<line x1="208.800" y1="1000.000" x2="208.800" y2="997.000" class="tickline"/>
<line x1="214.400" y1="1000.000" x2="214.400" y2="997.000" class="tickline"/>
<line x1="225.600" y1="1000.000" x2="225.600" y2="997.000" class="tickline"/>
<line x1="231.200" y1="1000.000" x2="231.200" y2="997.000" class="tickline"/>
<line x1="236.800" y1="1000.000" x2="236.800" y2="997.000" class="tickline"/>
<line x1="242.400" y1="1000.000" x2="242.400" y2="997.000" class="tickline"/>
<line x1="253.600" y1="1000.000" x2="253.600" y2="997.000" class="tickline"/>
<line x1="259.200" y1="1000.000" x2="259.200" y2="997.000" class="tickline"/>
<line x1="264.800" y1="1000.000" x2="264.800" y2="997.000" class="tickline"/>
<line x1="270.400" y1="1000.000" x2="270.400" y2="997.000" class="tickline"/>
<line x1="281.600" y1="1000.000" x2="281.600" y2="997.000" class="tickline"/>
<line x1="287.200" y1="1000.000" x2="287.200" y2="997.000" class="tickline"/>
<line x1="292.800" y1="1000.000" x2="292.800" y2="997.000" class="tickline"/>
<line x1="298.400" y1="1000.000" x2="298.400" y2="997.000" class="tickline"/>
<line x1="309.600" y1="1000.000" x2="309.600" y2="997.000" class="tickline"/>
<line x1="315.200" y1="1000.000" x2="315.200" y2="997.000" class="tickline"/>
<line x1="320.800" y1="1000.000" x2="320.800" y2="997.000" class="tickline"/>
<line x1="326.400" y1="1000.000" x2="326.400" y2="997.000" class="tickline"/>
<line x1="337.600" y1="1000.000" x2="337.600" y2="997.000" class="tickline"/>
<line x1="343.200" y1="1000.000" x2="343.200" y2="997.000" class="tickline"/>
<line x1="348.800" y1="1000.000" x2="348.800" y2="997.000" class="tickline"/>
<line x1="354.400" y1="1000.000" x2="354.400" y2="997.000" class="tickline"/>

<!-- lion overlay -->
<g id="lion" fill="none" stroke="#4A8EC9" stroke-width="1.2" stroke-linejoin="round" stroke-linecap="round">
  <path d="M 838.70 794.47 L 838.29 794.47 L 838.08 793.85 L 840.13 789.74 L 840.96 788.92 L 845.47 779.47 L 845.47 778.65 L 847.12 775.78 L 847.94 772.90 L 850.40 767.56 L 850.81 765.51 L 851.64 764.28 L 856.15 750.31 L 856.56 747.44 L 857.39 745.79 L 858.21 740.87 L 859.44 737.17 L 860.26 731.42 L 860.67 731.01 L 861.08 726.49 L 861.90 723.61 L 861.90 721.15 L 862.31 720.74 L 862.31 717.86 L 862.73 717.45 L 863.14 709.65 L 863.55 709.24 L 863.55 703.08 L 863.96 702.67 L 863.96 681.31 L 863.55 680.90 L 863.55 675.15 L 863.14 674.74 L 863.14 670.63 L 862.73 670.22 L 862.31 663.65 L 861.90 663.24 L 861.90 660.77 L 861.49 660.36 L 861.49 658.31 L 861.08 657.90 L 861.08 655.84 L 860.67 655.43 L 860.67 653.38 L 859.44 649.27 L 859.44 647.63 L 859.03 647.22 L 859.03 645.57 L 858.62 645.16 L 858.21 641.88 L 856.98 638.59 L 856.15 634.07 L 854.92 631.20 L 854.92 629.97 L 851.64 620.11 L 849.58 615.59 L 849.17 613.54 L 847.94 611.48 L 847.94 610.66 L 845.47 605.73 L 845.47 604.91 L 843.01 600.39 L 843.01 599.57 L 834.38 583.55 L 826.17 570.82 L 817.95 559.73 L 808.92 549.46 L 801.11 539.60 L 792.90 527.69 L 792.49 526.46 L 788.38 520.30 L 782.22 508.80 L 775.65 494.83 L 775.65 494.01 L 771.54 484.15 L 768.67 475.53 L 768.67 474.30 L 767.43 471.42 L 766.61 466.90 L 765.79 465.26 L 764.56 458.28 L 763.74 456.22 L 762.92 450.06 L 762.50 449.65 L 762.50 447.60 L 762.09 447.19 L 761.27 438.56 L 760.86 438.15 L 760.86 434.86 L 760.45 434.45 L 760.45 430.35 L 760.04 429.94 L 760.04 424.19 L 759.63 423.77 L 759.63 401.59 L 760.04 401.18 L 760.04 395.43 L 760.45 395.02 L 760.45 390.92 L 760.86 390.51 L 761.68 381.06 L 762.09 380.65 L 762.92 373.66 L 763.74 371.20 L 764.15 367.50 L 765.38 363.81 L 765.38 362.16 L 767.02 357.24 L 767.43 354.36 L 768.67 351.48 L 768.67 350.25 L 771.95 340.39 L 774.83 333.82 L 774.62 333.21 L 765.38 346.15 L 757.99 358.47 L 748.95 376.95 L 748.95 377.77 L 747.72 379.83 L 745.66 385.99 L 744.84 387.22 L 743.61 391.74 L 742.79 392.97 L 741.97 396.67 L 739.50 403.65 L 739.09 406.52 L 738.27 408.17 L 737.45 413.10 L 736.63 415.15 L 736.63 416.79 L 736.22 417.20 L 736.22 418.85 L 735.81 419.26 L 735.81 420.90 L 735.40 421.31 L 735.40 422.95 L 734.99 423.36 L 734.16 430.76 L 733.75 431.17 L 733.75 433.63 L 733.34 434.04 L 733.34 436.92 L 732.93 437.33 L 732.52 446.37 L 732.11 446.78 L 732.11 454.17 L 731.70 454.58 L 731.70 467.72 L 732.11 468.13 L 732.11 475.94 L 732.52 476.35 L 732.93 484.98 L 733.34 485.39 L 733.34 488.26 L 733.75 488.67 L 733.75 491.14 L 734.16 491.55 L 734.99 498.94 L 735.40 499.35 L 736.63 507.15 L 737.04 507.57 L 739.09 517.01 L 744.43 533.85 L 745.25 535.09 L 745.66 537.14 L 746.49 538.37 L 748.13 543.30 L 750.59 548.23 L 750.59 549.05 L 757.58 563.02 L 763.33 572.46 L 769.90 585.61 L 769.90 586.43 L 771.54 589.30 L 771.54 590.12 L 772.77 592.18 L 772.77 593.00 L 775.24 598.34 L 775.65 600.39 L 776.47 601.62 L 780.99 615.59 L 780.99 616.82 L 782.22 620.11 L 782.22 621.34 L 783.45 625.04 L 783.45 626.68 L 784.27 628.73 L 784.27 630.38 L 785.10 632.84 L 785.10 634.48 L 785.51 634.89 L 785.51 636.95 L 785.92 637.36 L 785.92 639.41 L 786.33 639.82 L 786.33 641.88 L 786.74 642.29 L 787.56 651.32 L 787.97 651.74 L 787.97 655.84 L 788.38 656.25 L 788.38 661.59 L 788.79 662.00 L 788.79 686.65 L 788.38 687.06 L 788.38 692.40 L 787.97 692.81 L 787.15 703.49 L 786.74 703.90 L 786.74 706.36 L 786.33 706.77 L 786.33 708.83 L 785.92 709.24 L 785.92 711.29 L 785.51 711.70 L 785.51 713.35 L 784.69 715.81 L 783.86 721.56 L 783.45 721.97 L 781.40 731.42 L 780.58 733.06 L 780.58 734.29 L 775.65 749.08 L 774.83 750.31 L 772.36 757.29 L 771.13 759.35 L 771.13 760.17 L 769.08 763.87 L 769.08 764.69 L 764.56 773.72 L 763.74 774.55 L 762.09 778.24 L 759.84 781.73 L 758.81 759.76 L 758.40 759.35 L 758.40 756.06 L 757.99 755.65 L 757.58 749.49 L 757.17 749.08 L 755.93 739.63 L 755.52 739.22 L 754.29 731.83 L 753.06 728.13 L 752.65 725.26 L 751.83 723.61 L 751.83 722.38 L 751.00 720.74 L 751.00 719.51 L 750.18 717.86 L 750.18 716.63 L 743.61 698.56 L 735.81 681.72 L 734.99 680.90 L 731.29 673.50 L 723.90 661.59 L 715.27 649.68 L 709.93 643.52 L 709.93 642.70 L 704.59 637.36 L 695.97 627.50 L 687.75 616.82 L 678.71 603.27 L 675.02 596.29 L 674.20 595.46 L 672.55 591.77 L 671.73 590.95 L 664.34 575.34 L 657.77 557.68 L 657.77 556.44 L 655.30 549.46 L 654.48 544.94 L 652.84 539.60 L 652.84 537.96 L 652.02 535.91 L 651.61 531.80 L 650.78 529.33 L 650.78 527.28 L 650.37 526.87 L 650.37 524.82 L 649.96 524.41 L 649.55 518.66 L 649.14 518.24 L 648.73 510.44 L 648.32 510.03 L 648.32 504.69 L 647.91 504.28 L 647.91 481.28 L 648.32 480.87 L 648.32 474.30 L 648.73 473.89 L 649.55 463.21 L 649.96 462.80 L 649.96 460.33 L 650.37 459.92 L 650.37 457.87 L 650.78 457.46 L 650.78 455.40 L 651.19 454.99 L 651.19 452.94 L 651.61 452.53 L 652.43 446.78 L 652.84 446.37 L 655.30 435.28 L 657.36 429.53 L 657.36 428.29 L 659.41 422.13 L 660.23 420.90 L 661.05 417.61 L 661.87 416.38 L 662.28 414.33 L 665.16 408.17 L 665.16 407.35 L 667.21 403.65 L 667.21 402.83 L 676.66 384.75 L 684.46 372.43 L 695.55 357.65 L 702.95 349.02 L 720.81 331.56 L 735.19 320.06 L 749.98 310.21 L 756.96 306.51 L 757.78 305.69 L 762.30 303.63 L 763.12 302.81 L 778.11 296.04 L 776.68 295.83 L 776.26 296.24 L 774.62 296.24 L 772.57 297.06 L 764.76 298.70 L 761.89 299.94 L 760.66 299.94 L 747.10 304.46 L 745.87 305.28 L 738.89 307.74 L 736.83 308.97 L 736.01 308.97 L 723.28 315.13 L 722.46 315.96 L 713.01 320.88 L 697.40 331.15 L 680.56 344.71 L 676.04 348.82 L 662.28 362.99 L 654.07 372.84 L 647.91 381.06 L 640.10 392.56 L 639.69 393.79 L 632.30 405.29 L 620.39 428.29 L 620.39 429.11 L 615.05 440.62 L 613.82 444.72 L 610.94 451.29 L 605.19 468.96 L 603.96 474.71 L 603.14 476.35 L 602.73 479.22 L 601.08 484.56 L 601.08 486.21 L 600.26 488.26 L 599.85 491.96 L 599.03 494.01 L 598.62 498.12 L 598.21 498.53 L 597.80 503.05 L 597.39 503.46 L 596.98 507.98 L 596.57 508.39 L 596.57 510.85 L 596.16 511.26 L 595.74 517.42 L 595.33 517.83 L 594.92 526.05 L 594.51 526.46 L 594.51 531.39 L 594.10 531.80 L 594.10 538.78 L 593.69 539.19 L 593.69 563.02 L 594.10 563.43 L 594.10 570.41 L 594.51 570.82 L 594.51 575.75 L 594.92 576.16 L 594.92 580.27 L 595.33 580.68 L 596.16 590.54 L 596.57 590.95 L 596.57 593.41 L 597.39 596.29 L 597.80 601.21 L 598.21 601.63 L 598.00 603.47 L 590.82 593.00 L 584.65 582.73 L 578.08 570.00 L 578.08 569.18 L 576.03 565.48 L 576.03 564.66 L 574.39 561.78 L 574.39 560.96 L 571.92 555.62 L 571.51 553.57 L 570.69 552.34 L 569.87 549.05 L 568.23 545.35 L 568.23 544.12 L 566.58 540.01 L 566.58 538.78 L 565.76 537.14 L 565.76 535.91 L 564.94 534.26 L 564.53 531.39 L 563.30 527.69 L 563.30 526.05 L 562.89 525.64 L 561.65 518.25 L 561.24 517.83 L 561.24 515.78 L 560.83 515.37 L 560.83 513.32 L 560.01 510.44 L 560.01 507.98 L 559.60 507.57 L 559.60 504.69 L 559.19 504.28 L 559.19 500.99 L 558.78 500.58 L 558.37 489.49 L 557.96 489.08 L 557.96 468.96 L 558.37 468.55 L 558.37 462.38 L 558.78 461.97 L 558.78 457.87 L 559.19 457.46 L 559.19 453.76 L 559.60 453.35 L 560.01 447.60 L 560.42 447.19 L 560.42 445.13 L 560.83 444.72 L 560.83 442.67 L 561.24 442.26 L 561.24 440.20 L 562.06 437.74 L 562.89 431.99 L 563.30 431.58 L 565.35 422.13 L 566.17 420.49 L 566.17 419.26 L 571.10 404.47 L 573.56 399.13 L 574.39 396.26 L 575.62 394.20 L 575.62 393.38 L 576.85 391.33 L 576.85 390.51 L 583.01 378.18 L 583.83 377.36 L 585.07 374.49 L 591.23 364.22 L 598.21 353.95 L 606.83 342.86 L 617.10 331.36 L 623.06 325.40 L 632.10 317.19 L 645.65 306.51 L 657.15 298.70 L 667.42 292.95 L 668.24 292.13 L 683.03 284.74 L 683.85 284.74 L 686.72 283.10 L 689.60 282.28 L 693.71 280.22 L 710.55 274.47 L 711.78 274.47 L 713.42 273.65 L 714.65 273.65 L 723.28 271.19 L 724.92 271.19 L 725.33 270.77 L 726.98 270.77 L 727.39 270.36 L 729.03 270.36 L 729.44 269.95 L 731.08 269.95 L 733.55 269.13 L 738.07 268.72 L 738.48 268.31 L 747.31 267.28 L 744.23 267.08 L 743.82 266.67 L 719.58 266.67 L 719.17 267.08 L 709.31 267.49 L 708.90 267.90 L 702.74 268.31 L 702.33 268.72 L 699.87 268.72 L 699.46 269.13 L 697.40 269.13 L 696.99 269.54 L 692.88 269.95 L 692.47 270.36 L 688.37 270.77 L 686.31 271.60 L 684.67 271.60 L 684.26 272.01 L 676.45 273.65 L 671.94 275.29 L 670.70 275.29 L 658.38 279.40 L 657.15 280.22 L 655.10 280.63 L 653.86 281.45 L 648.94 283.10 L 632.51 290.90 L 631.68 291.72 L 627.99 293.37 L 617.72 299.53 L 607.45 306.51 L 598.83 313.08 L 586.91 323.35 L 571.92 338.75 L 558.78 355.18 L 546.87 373.66 L 536.19 395.02 L 536.19 395.84 L 533.31 402.01 L 532.90 404.06 L 532.08 405.29 L 531.26 408.58 L 530.44 409.81 L 528.79 414.74 L 528.79 415.97 L 525.92 424.60 L 525.92 425.83 L 524.69 429.53 L 524.69 431.17 L 523.87 433.22 L 523.87 434.87 L 523.04 436.92 L 520.37 454.79 L 520.17 452.12 L 519.76 451.71 L 519.76 447.60 L 519.35 447.19 L 519.35 440.62 L 518.94 440.20 L 518.94 421.72 L 519.35 421.31 L 519.35 415.15 L 519.76 414.74 L 520.17 406.52 L 520.58 406.11 L 520.58 403.24 L 520.99 402.83 L 520.99 400.36 L 521.40 399.95 L 521.40 397.49 L 521.81 397.08 L 521.81 395.02 L 522.63 392.56 L 522.63 390.51 L 523.04 390.09 L 523.04 388.45 L 523.87 386.40 L 523.87 384.75 L 525.92 377.77 L 526.33 374.90 L 527.15 373.25 L 527.97 369.15 L 531.26 359.29 L 532.08 358.06 L 532.49 356.00 L 533.31 354.77 L 535.78 347.79 L 540.29 338.75 L 540.29 337.93 L 545.22 328.48 L 546.05 327.66 L 551.80 317.39 L 559.60 305.89 L 570.69 291.93 L 579.32 282.48 L 589.79 272.42 L 600.06 263.79 L 609.50 256.81 L 620.18 249.83 L 630.04 244.49 L 630.86 243.67 L 641.54 238.33 L 642.36 238.33 L 646.06 236.27 L 646.88 236.27 L 655.10 232.58 L 671.94 226.83 L 673.17 226.83 L 674.81 226.00 L 676.04 226.00 L 679.74 224.77 L 681.38 224.77 L 681.79 224.36 L 685.08 223.95 L 685.49 223.54 L 687.54 223.54 L 687.96 223.13 L 690.01 223.13 L 690.42 222.72 L 696.58 222.31 L 696.99 221.90 L 701.51 221.90 L 701.92 221.49 L 718.35 221.49 L 718.76 221.90 L 726.98 222.31 L 727.39 222.72 L 729.85 222.72 L 730.26 223.13 L 732.32 223.13 L 732.73 223.54 L 738.89 224.36 L 739.30 224.77 L 747.10 226.41 L 751.21 228.06 L 752.44 228.06 L 753.67 228.88 L 756.96 229.70 L 758.19 230.52 L 763.12 232.17 L 775.44 238.33 L 786.53 245.31 L 794.75 251.88 L 796.60 252.91 L 791.26 246.75 L 784.48 239.97 L 774.21 231.34 L 767.23 226.41 L 766.00 226.00 L 759.83 221.90 L 756.96 220.66 L 756.14 219.84 L 740.53 212.86 L 730.67 209.57 L 727.80 209.16 L 726.15 208.34 L 722.87 207.93 L 718.76 206.70 L 714.24 206.29 L 713.83 205.88 L 708.08 205.47 L 707.67 205.06 L 703.56 205.06 L 703.15 204.65 L 685.08 204.65 L 684.67 205.06 L 680.56 205.06 L 680.15 205.47 L 673.99 205.88 L 673.58 206.29 L 671.53 206.29 L 671.12 206.70 L 665.36 207.52 L 664.95 207.93 L 657.15 209.57 L 647.29 212.86 L 644.01 214.50 L 642.98 214.30 L 647.70 209.99 L 655.92 203.82 L 664.95 198.07 L 676.04 192.32 L 676.87 192.32 L 679.74 190.68 L 685.90 188.63 L 687.13 187.81 L 701.10 183.70 L 702.74 183.70 L 704.80 182.88 L 708.90 182.47 L 709.31 182.06 L 711.37 182.06 L 711.78 181.64 L 717.94 181.23 L 718.35 180.82 L 722.46 180.82 L 722.87 180.41 L 740.53 180.41 L 740.94 180.82 L 745.46 180.82 L 745.87 181.23 L 751.62 181.64 L 752.03 182.05 L 756.55 182.47 L 756.96 182.88 L 760.66 183.29 L 764.35 184.52 L 767.23 184.93 L 777.50 188.22 L 778.73 189.04 L 782.84 190.27 L 785.71 191.91 L 786.53 191.91 L 799.27 198.48 L 809.94 205.47 L 820.62 214.09 L 831.10 224.57 L 837.26 232.37 L 838.90 233.60 L 838.49 233.19 L 838.49 230.73 L 838.08 230.32 L 838.08 228.26 L 837.67 227.85 L 836.85 222.92 L 832.33 210.19 L 826.17 199.10 L 819.19 190.06 L 809.94 181.23 L 799.27 173.84 L 786.94 168.09 L 775.44 164.80 L 773.39 164.80 L 772.36 164.19 L 777.50 161.93 L 782.84 160.70 L 784.48 159.88 L 786.12 159.88 L 786.53 159.46 L 790.23 159.05 L 790.64 158.64 L 793.52 158.64 L 793.93 158.23 L 797.62 158.23 L 798.03 157.82 L 808.71 157.82 L 809.12 158.23 L 816.11 158.64 L 816.52 159.05 L 818.57 159.05 L 818.98 159.46 L 820.62 159.46 L 821.03 159.87 L 825.55 160.70 L 833.77 163.57 L 841.57 167.27 L 850.61 173.02 L 857.18 178.36 L 862.72 183.90 L 868.06 190.48 L 873.81 199.51 L 877.51 207.32 L 880.39 215.53 L 880.80 218.41 L 881.62 220.46 L 881.62 222.10 L 882.03 222.51 L 882.44 227.44 L 882.85 227.85 L 882.85 231.14 L 883.26 231.55 L 883.26 243.05 L 882.85 243.46 L 882.85 245.10 L 917.97 263.79 L 924.95 268.31 L 931.52 273.65 L 939.94 282.48 L 947.34 293.16 L 953.09 305.48 L 954.73 310.41 L 954.73 311.64 L 955.55 313.29 L 956.78 320.68 L 1008.33 363.19 L 1015.52 370.79 L 1018.81 375.72 L 1023.32 385.58 L 1023.32 385.99 L 1022.71 386.19 L 1021.07 385.37 L 1016.14 384.55 L 1015.73 384.14 L 1013.67 384.14 L 1013.26 383.73 L 1002.17 383.73 L 1001.76 384.14 L 997.65 384.55 L 992.93 385.99 L 993.96 386.60 L 998.89 387.42 L 1003.40 389.07 L 1011.21 393.59 L 1016.75 399.13 L 1018.40 401.59 L 1020.04 404.47 L 1022.09 410.22 L 1022.50 414.74 L 1022.91 415.15 L 1022.91 418.44 L 1022.50 418.85 L 1022.50 421.72 L 1020.86 426.65 L 1018.40 431.17 L 1014.29 436.92 L 1007.10 444.11 L 1002.17 447.80 L 992.72 452.73 L 980.81 456.43 L 977.12 456.84 L 976.71 457.25 L 974.24 457.25 L 973.83 457.66 L 970.95 457.66 L 970.54 458.07 L 955.76 458.07 L 955.35 457.66 L 952.06 457.66 L 951.65 457.25 L 945.49 456.43 L 935.63 453.55 L 923.31 447.80 L 916.33 443.28 L 910.58 438.77 L 902.57 430.76 L 898.05 425.01 L 893.12 417.20 L 888.81 407.96 L 877.72 406.73 L 877.31 406.32 L 873.61 405.91 L 871.97 405.09 L 870.73 405.09 L 865.39 403.44 L 852.25 397.28 L 846.50 393.59 L 840.75 389.07 L 836.23 384.96 L 831.51 379.83 L 828.22 375.72 L 822.88 367.50 L 817.95 357.24 L 814.67 346.56 L 813.85 340.39 L 813.03 340.39 L 812.61 345.73 L 812.20 346.15 L 812.20 350.25 L 811.79 350.66 L 811.79 370.79 L 812.20 371.20 L 812.61 378.59 L 813.03 379.00 L 813.03 381.47 L 813.44 381.88 L 814.26 388.04 L 814.67 388.45 L 816.31 396.26 L 817.13 397.90 L 817.13 399.13 L 819.60 406.52 L 823.29 414.74 L 823.29 415.56 L 830.69 429.53 L 840.13 443.08 L 848.35 452.53 L 857.18 460.95 L 861.70 464.64 L 871.76 474.71 L 878.33 482.10 L 891.07 498.53 L 902.57 517.01 L 908.32 528.10 L 908.32 528.92 L 913.25 539.19 L 913.25 540.01 L 915.71 545.35 L 916.53 548.64 L 917.35 549.87 L 919.41 556.03 L 919.41 557.26 L 920.64 560.14 L 920.64 561.37 L 921.46 563.02 L 921.46 564.25 L 923.93 572.87 L 925.16 580.27 L 925.57 580.68 L 926.39 587.66 L 926.80 588.07 L 926.80 590.53 L 927.21 590.95 L 927.21 593.82 L 927.62 594.23 L 928.03 602.04 L 928.44 602.45 L 928.44 608.20 L 928.85 608.61 L 928.85 632.02 L 928.44 632.43 L 928.03 642.70 L 927.62 643.11 L 927.21 649.27 L 926.80 649.68 L 926.80 652.15 L 926.39 652.56 L 926.39 655.02 L 925.57 657.49 L 925.57 659.54 L 925.16 659.95 L 924.34 665.70 L 923.51 667.75 L 923.51 669.40 L 922.28 673.09 L 922.28 674.33 L 921.46 675.97 L 921.05 678.84 L 919.82 681.72 L 919.82 682.95 L 916.94 691.58 L 916.12 692.81 L 915.30 696.09 L 911.60 704.31 L 911.60 705.13 L 909.96 708.01 L 909.96 708.83 L 903.39 721.97 L 902.57 722.79 L 897.64 731.83 L 891.48 741.28 L 881.62 754.42 L 873.82 763.46 L 859.23 778.04 L 850.61 785.43 L 838.70 794.47 Z"/>
  <path d="M 914.89 333.82 L 920.23 328.89 L 923.10 323.97 L 924.34 319.86 L 924.13 313.49 L 921.26 312.67 L 917.97 312.67 L 917.56 312.26 L 908.52 312.26 L 908.11 312.67 L 903.59 312.67 L 903.18 313.08 L 900.31 313.08 L 899.90 313.49 L 892.50 314.31 L 892.09 314.72 L 890.45 314.72 L 890.04 315.13 L 888.40 315.13 L 887.99 315.55 L 882.85 316.57 L 892.50 318.83 L 901.13 322.94 L 907.70 327.46 L 914.68 334.03 L 914.89 333.82 Z"/>
</g>
</svg>